<mxfile host="app.diagrams.net" modified="2024-03-14T11:30:21.552Z" agent="Mozilla/5.0 (Windows NT 10.0; Win64; x64) AppleWebKit/537.36 (KHTML, like Gecko) Chrome/122.0.0.0 Safari/537.36" etag="G_PVQn8cB8FgjMo5arai" version="24.0.5" type="google">
  <diagram name="Trang-1" id="qpkncSQu9gxltQbi7kdN">
    <mxGraphModel grid="0" page="1" gridSize="10" guides="1" tooltips="1" connect="1" arrows="1" fold="1" pageScale="1" pageWidth="827" pageHeight="1169" math="0" shadow="0">
      <root>
        <mxCell id="0" />
        <mxCell id="1" parent="0" />
        <mxCell id="NqhE_Ja5AIdhjeWjl9OC-40" value="" style="rounded=0;whiteSpace=wrap;html=1;" vertex="1" parent="1">
          <mxGeometry x="176" y="251" width="862" height="798" as="geometry" />
        </mxCell>
        <mxCell id="ci-4XjQ7CBi_CwMPtgB--39" style="rounded=0;orthogonalLoop=1;jettySize=auto;html=1;exitX=0.5;exitY=0.5;exitDx=0;exitDy=0;exitPerimeter=0;entryX=0;entryY=0.5;entryDx=0;entryDy=0;" edge="1" parent="1" source="ci-4XjQ7CBi_CwMPtgB--10" target="ci-4XjQ7CBi_CwMPtgB--12">
          <mxGeometry relative="1" as="geometry">
            <mxPoint x="370" y="400" as="targetPoint" />
          </mxGeometry>
        </mxCell>
        <mxCell id="7kzHWnWIBPAfGr6T1e9X-5" style="rounded=0;orthogonalLoop=1;jettySize=auto;html=1;exitX=0.5;exitY=0.5;exitDx=0;exitDy=0;exitPerimeter=0;entryX=0;entryY=0.5;entryDx=0;entryDy=0;" edge="1" parent="1" source="ci-4XjQ7CBi_CwMPtgB--10" target="ci-4XjQ7CBi_CwMPtgB--17">
          <mxGeometry relative="1" as="geometry" />
        </mxCell>
        <mxCell id="7kzHWnWIBPAfGr6T1e9X-6" style="rounded=0;orthogonalLoop=1;jettySize=auto;html=1;exitX=0.5;exitY=0.5;exitDx=0;exitDy=0;exitPerimeter=0;entryX=0;entryY=0.5;entryDx=0;entryDy=0;" edge="1" parent="1" source="ci-4XjQ7CBi_CwMPtgB--10" target="ci-4XjQ7CBi_CwMPtgB--19">
          <mxGeometry relative="1" as="geometry" />
        </mxCell>
        <mxCell id="7kzHWnWIBPAfGr6T1e9X-26" style="rounded=0;orthogonalLoop=1;jettySize=auto;html=1;exitX=0.5;exitY=0.5;exitDx=0;exitDy=0;exitPerimeter=0;entryX=0;entryY=0.5;entryDx=0;entryDy=0;" edge="1" parent="1" source="ci-4XjQ7CBi_CwMPtgB--10" target="ci-4XjQ7CBi_CwMPtgB--20">
          <mxGeometry relative="1" as="geometry" />
        </mxCell>
        <mxCell id="X004G8pjn3clyAE5x_aE-1" style="rounded=0;orthogonalLoop=1;jettySize=auto;html=1;exitX=0.5;exitY=0.5;exitDx=0;exitDy=0;exitPerimeter=0;entryX=0;entryY=0.5;entryDx=0;entryDy=0;" edge="1" parent="1" source="ci-4XjQ7CBi_CwMPtgB--10" target="7kzHWnWIBPAfGr6T1e9X-9">
          <mxGeometry relative="1" as="geometry" />
        </mxCell>
        <mxCell id="NqhE_Ja5AIdhjeWjl9OC-45" style="rounded=0;orthogonalLoop=1;jettySize=auto;html=1;exitX=0.5;exitY=0.5;exitDx=0;exitDy=0;exitPerimeter=0;entryX=0;entryY=0.5;entryDx=0;entryDy=0;" edge="1" parent="1" source="ci-4XjQ7CBi_CwMPtgB--10" target="NqhE_Ja5AIdhjeWjl9OC-27">
          <mxGeometry relative="1" as="geometry" />
        </mxCell>
        <mxCell id="ci-4XjQ7CBi_CwMPtgB--10" value="Customers" style="shape=umlActor;verticalLabelPosition=bottom;verticalAlign=top;html=1;outlineConnect=0;" vertex="1" parent="1">
          <mxGeometry x="66" y="681" width="30" height="40" as="geometry" />
        </mxCell>
        <mxCell id="ci-4XjQ7CBi_CwMPtgB--12" value="Sign up/Log in&amp;nbsp;" style="ellipse;whiteSpace=wrap;html=1;" vertex="1" parent="1">
          <mxGeometry x="203" y="378" width="112" height="30" as="geometry" />
        </mxCell>
        <mxCell id="ci-4XjQ7CBi_CwMPtgB--13" value="Log out&amp;nbsp;" style="ellipse;whiteSpace=wrap;html=1;" vertex="1" parent="1">
          <mxGeometry x="230" y="442" width="114" height="30" as="geometry" />
        </mxCell>
        <mxCell id="ci-4XjQ7CBi_CwMPtgB--14" value="Click Search box&amp;nbsp;" style="ellipse;whiteSpace=wrap;html=1;" vertex="1" parent="1">
          <mxGeometry x="234" y="500" width="110" height="30" as="geometry" />
        </mxCell>
        <mxCell id="ci-4XjQ7CBi_CwMPtgB--15" value="Add product to cart" style="ellipse;whiteSpace=wrap;html=1;" vertex="1" parent="1">
          <mxGeometry x="493" y="565" width="114" height="33" as="geometry" />
        </mxCell>
        <mxCell id="ci-4XjQ7CBi_CwMPtgB--17" value="Manage Profile&amp;nbsp;" style="ellipse;whiteSpace=wrap;html=1;" vertex="1" parent="1">
          <mxGeometry x="234" y="555" width="112" height="30" as="geometry" />
        </mxCell>
        <mxCell id="7kzHWnWIBPAfGr6T1e9X-32" style="rounded=0;orthogonalLoop=1;jettySize=auto;html=1;exitX=1;exitY=0.5;exitDx=0;exitDy=0;" edge="1" parent="1" source="ci-4XjQ7CBi_CwMPtgB--20" target="wsBEl92gCE78TyYUKLRU-2">
          <mxGeometry relative="1" as="geometry" />
        </mxCell>
        <mxCell id="ci-4XjQ7CBi_CwMPtgB--20" value="Check out&amp;nbsp;" style="ellipse;whiteSpace=wrap;html=1;" vertex="1" parent="1">
          <mxGeometry x="453" y="717" width="117" height="39" as="geometry" />
        </mxCell>
        <mxCell id="7kzHWnWIBPAfGr6T1e9X-27" style="rounded=0;orthogonalLoop=1;jettySize=auto;html=1;exitX=0.5;exitY=0.5;exitDx=0;exitDy=0;exitPerimeter=0;entryX=0;entryY=0.5;entryDx=0;entryDy=0;" edge="1" parent="1" source="ci-4XjQ7CBi_CwMPtgB--21" target="ci-4XjQ7CBi_CwMPtgB--25">
          <mxGeometry relative="1" as="geometry" />
        </mxCell>
        <mxCell id="7kzHWnWIBPAfGr6T1e9X-28" style="rounded=0;orthogonalLoop=1;jettySize=auto;html=1;exitX=0.5;exitY=0.5;exitDx=0;exitDy=0;exitPerimeter=0;entryX=0;entryY=0.5;entryDx=0;entryDy=0;" edge="1" parent="1" source="ci-4XjQ7CBi_CwMPtgB--21" target="ci-4XjQ7CBi_CwMPtgB--27">
          <mxGeometry relative="1" as="geometry" />
        </mxCell>
        <mxCell id="7kzHWnWIBPAfGr6T1e9X-30" style="rounded=0;orthogonalLoop=1;jettySize=auto;html=1;exitX=0.5;exitY=0.5;exitDx=0;exitDy=0;exitPerimeter=0;entryX=0;entryY=0.5;entryDx=0;entryDy=0;" edge="1" parent="1" source="ci-4XjQ7CBi_CwMPtgB--21" target="ci-4XjQ7CBi_CwMPtgB--29">
          <mxGeometry relative="1" as="geometry" />
        </mxCell>
        <mxCell id="7kzHWnWIBPAfGr6T1e9X-31" style="rounded=0;orthogonalLoop=1;jettySize=auto;html=1;exitX=0.5;exitY=0.5;exitDx=0;exitDy=0;exitPerimeter=0;entryX=0;entryY=0.5;entryDx=0;entryDy=0;" edge="1" parent="1" source="ci-4XjQ7CBi_CwMPtgB--21" target="ci-4XjQ7CBi_CwMPtgB--26">
          <mxGeometry relative="1" as="geometry" />
        </mxCell>
        <mxCell id="ci-4XjQ7CBi_CwMPtgB--21" value="Admin" style="shape=umlActor;verticalLabelPosition=bottom;verticalAlign=top;html=1;outlineConnect=0;" vertex="1" parent="1">
          <mxGeometry x="70" y="870" width="30" height="60" as="geometry" />
        </mxCell>
        <mxCell id="ci-4XjQ7CBi_CwMPtgB--25" value="Manage Product&amp;nbsp;" style="ellipse;whiteSpace=wrap;html=1;" vertex="1" parent="1">
          <mxGeometry x="371" y="759" width="114" height="41" as="geometry" />
        </mxCell>
        <mxCell id="ci-4XjQ7CBi_CwMPtgB--26" value="Manage check-out&amp;nbsp;" style="ellipse;whiteSpace=wrap;html=1;" vertex="1" parent="1">
          <mxGeometry x="356" y="970" width="110" height="40" as="geometry" />
        </mxCell>
        <mxCell id="ci-4XjQ7CBi_CwMPtgB--27" value="Manage Orders" style="ellipse;whiteSpace=wrap;html=1;" vertex="1" parent="1">
          <mxGeometry x="351" y="904" width="116" height="40" as="geometry" />
        </mxCell>
        <mxCell id="ci-4XjQ7CBi_CwMPtgB--29" value="Manage Customer" style="ellipse;whiteSpace=wrap;html=1;" vertex="1" parent="1">
          <mxGeometry x="373" y="810" width="110" height="40" as="geometry" />
        </mxCell>
        <mxCell id="ci-4XjQ7CBi_CwMPtgB--35" value="delete information&amp;nbsp;" style="ellipse;whiteSpace=wrap;html=1;" vertex="1" parent="1">
          <mxGeometry x="702" y="864" width="120" height="40" as="geometry" />
        </mxCell>
        <mxCell id="ci-4XjQ7CBi_CwMPtgB--36" style="rounded=0;orthogonalLoop=1;jettySize=auto;html=1;exitX=0.5;exitY=0.5;exitDx=0;exitDy=0;exitPerimeter=0;entryX=0;entryY=1;entryDx=0;entryDy=0;" edge="1" parent="1" source="ci-4XjQ7CBi_CwMPtgB--10" target="ci-4XjQ7CBi_CwMPtgB--13">
          <mxGeometry relative="1" as="geometry" />
        </mxCell>
        <mxCell id="ci-4XjQ7CBi_CwMPtgB--40" style="rounded=0;orthogonalLoop=1;jettySize=auto;html=1;exitX=0.5;exitY=0.5;exitDx=0;exitDy=0;exitPerimeter=0;entryX=0;entryY=0.5;entryDx=0;entryDy=0;" edge="1" parent="1" source="ci-4XjQ7CBi_CwMPtgB--10" target="ci-4XjQ7CBi_CwMPtgB--14">
          <mxGeometry relative="1" as="geometry" />
        </mxCell>
        <mxCell id="ci-4XjQ7CBi_CwMPtgB--55" style="edgeStyle=orthogonalEdgeStyle;rounded=0;orthogonalLoop=1;jettySize=auto;html=1;exitX=0.5;exitY=1;exitDx=0;exitDy=0;" edge="1" parent="1" source="ci-4XjQ7CBi_CwMPtgB--19" target="ci-4XjQ7CBi_CwMPtgB--19">
          <mxGeometry relative="1" as="geometry" />
        </mxCell>
        <mxCell id="ci-4XjQ7CBi_CwMPtgB--62" value="" style="endArrow=block;endSize=16;endFill=0;html=1;rounded=0;exitX=0.5;exitY=0;exitDx=0;exitDy=0;exitPerimeter=0;" edge="1" parent="1" source="ci-4XjQ7CBi_CwMPtgB--21" target="ci-4XjQ7CBi_CwMPtgB--10">
          <mxGeometry width="160" relative="1" as="geometry">
            <mxPoint x="-40" y="790" as="sourcePoint" />
            <mxPoint x="120" y="790" as="targetPoint" />
          </mxGeometry>
        </mxCell>
        <mxCell id="wsBEl92gCE78TyYUKLRU-2" value="Banking&amp;nbsp;" style="shape=umlActor;verticalLabelPosition=bottom;verticalAlign=top;html=1;" vertex="1" parent="1">
          <mxGeometry x="1351" y="679" width="30" height="60" as="geometry" />
        </mxCell>
        <mxCell id="7kzHWnWIBPAfGr6T1e9X-8" value="enter keyWord" style="ellipse;whiteSpace=wrap;html=1;" vertex="1" parent="1">
          <mxGeometry x="493" y="433" width="95" height="26" as="geometry" />
        </mxCell>
        <mxCell id="7kzHWnWIBPAfGr6T1e9X-9" value="View Order History" style="ellipse;whiteSpace=wrap;html=1;" vertex="1" parent="1">
          <mxGeometry x="234.5" y="686" width="112" height="30" as="geometry" />
        </mxCell>
        <mxCell id="7kzHWnWIBPAfGr6T1e9X-10" value="Change address, contact" style="ellipse;whiteSpace=wrap;html=1;" vertex="1" parent="1">
          <mxGeometry x="482.5" y="506" width="135" height="35" as="geometry" />
        </mxCell>
        <mxCell id="7kzHWnWIBPAfGr6T1e9X-18" value="&amp;lt;&amp;lt;include&amp;gt;&amp;gt;" style="endArrow=open;endSize=12;dashed=1;html=1;rounded=0;exitX=0.573;exitY=-0.083;exitDx=0;exitDy=0;exitPerimeter=0;entryX=0;entryY=0.5;entryDx=0;entryDy=0;" edge="1" parent="1" source="ci-4XjQ7CBi_CwMPtgB--14" target="7kzHWnWIBPAfGr6T1e9X-8">
          <mxGeometry x="-0.0031" width="160" relative="1" as="geometry">
            <mxPoint x="321" y="423.5" as="sourcePoint" />
            <mxPoint x="481" y="423.5" as="targetPoint" />
            <mxPoint as="offset" />
          </mxGeometry>
        </mxCell>
        <mxCell id="7kzHWnWIBPAfGr6T1e9X-19" value="&amp;lt;&amp;lt;include&amp;gt;&amp;gt;" style="endArrow=open;endSize=12;dashed=1;html=1;rounded=0;exitX=0.679;exitY=0.017;exitDx=0;exitDy=0;exitPerimeter=0;entryX=0;entryY=0.5;entryDx=0;entryDy=0;" edge="1" parent="1" source="ci-4XjQ7CBi_CwMPtgB--17" target="7kzHWnWIBPAfGr6T1e9X-10">
          <mxGeometry width="160" relative="1" as="geometry">
            <mxPoint x="405" y="471" as="sourcePoint" />
            <mxPoint x="491" y="433.5" as="targetPoint" />
          </mxGeometry>
        </mxCell>
        <mxCell id="7kzHWnWIBPAfGr6T1e9X-25" value="&amp;lt;&amp;lt;include&amp;gt;&amp;gt;" style="endArrow=open;endSize=12;dashed=1;html=1;rounded=0;entryX=0;entryY=0.5;entryDx=0;entryDy=0;exitX=1;exitY=0.5;exitDx=0;exitDy=0;" edge="1" parent="1" source="ci-4XjQ7CBi_CwMPtgB--19" target="NqhE_Ja5AIdhjeWjl9OC-22">
          <mxGeometry x="0.0035" width="160" relative="1" as="geometry">
            <mxPoint x="455" y="666" as="sourcePoint" />
            <mxPoint x="493" y="594.75" as="targetPoint" />
            <mxPoint as="offset" />
          </mxGeometry>
        </mxCell>
        <mxCell id="EdQspr-EoTGLL3d4dlmB-1" value="&amp;nbsp;update information&amp;nbsp;" style="ellipse;whiteSpace=wrap;html=1;" vertex="1" parent="1">
          <mxGeometry x="702" y="749" width="110" height="40" as="geometry" />
        </mxCell>
        <mxCell id="EdQspr-EoTGLL3d4dlmB-2" style="edgeStyle=orthogonalEdgeStyle;rounded=0;orthogonalLoop=1;jettySize=auto;html=1;exitX=0.5;exitY=1;exitDx=0;exitDy=0;" edge="1" parent="1" source="ci-4XjQ7CBi_CwMPtgB--35" target="ci-4XjQ7CBi_CwMPtgB--35">
          <mxGeometry relative="1" as="geometry" />
        </mxCell>
        <mxCell id="EdQspr-EoTGLL3d4dlmB-7" value="" style="endArrow=open;html=1;rounded=0;endFill=0;dashed=1;dashPattern=1 2;exitX=1;exitY=0.5;exitDx=0;exitDy=0;entryX=0;entryY=0;entryDx=0;entryDy=0;" edge="1" parent="1" source="ci-4XjQ7CBi_CwMPtgB--25" target="NqhE_Ja5AIdhjeWjl9OC-13">
          <mxGeometry width="50" height="50" relative="1" as="geometry">
            <mxPoint x="609" y="882" as="sourcePoint" />
            <mxPoint x="600" y="874" as="targetPoint" />
          </mxGeometry>
        </mxCell>
        <mxCell id="EdQspr-EoTGLL3d4dlmB-13" value="&amp;lt;&amp;lt;include&amp;gt;&amp;gt;" style="edgeLabel;html=1;align=center;verticalAlign=middle;resizable=0;points=[];" connectable="0" vertex="1" parent="EdQspr-EoTGLL3d4dlmB-7">
          <mxGeometry x="-0.3025" y="1" relative="1" as="geometry">
            <mxPoint y="-3" as="offset" />
          </mxGeometry>
        </mxCell>
        <mxCell id="dEHhBSzEo7WnEX1Q0_IP-1" value="" style="rounded=0;orthogonalLoop=1;jettySize=auto;html=1;exitX=0.5;exitY=0.5;exitDx=0;exitDy=0;exitPerimeter=0;entryX=0;entryY=0.5;entryDx=0;entryDy=0;" edge="1" parent="1" source="ci-4XjQ7CBi_CwMPtgB--10" target="ci-4XjQ7CBi_CwMPtgB--19">
          <mxGeometry relative="1" as="geometry">
            <mxPoint x="85" y="690" as="sourcePoint" />
            <mxPoint x="426" y="601" as="targetPoint" />
          </mxGeometry>
        </mxCell>
        <mxCell id="ci-4XjQ7CBi_CwMPtgB--19" value="Order Products&amp;nbsp;" style="ellipse;whiteSpace=wrap;html=1;" vertex="1" parent="1">
          <mxGeometry x="230" y="611" width="121" height="30" as="geometry" />
        </mxCell>
        <mxCell id="dEHhBSzEo7WnEX1Q0_IP-2" value="&amp;lt;&amp;lt;include&amp;gt;&amp;gt;" style="endArrow=open;endSize=12;dashed=1;html=1;rounded=0;exitX=1;exitY=0.5;exitDx=0;exitDy=0;entryX=0;entryY=0.5;entryDx=0;entryDy=0;" edge="1" parent="1" source="ci-4XjQ7CBi_CwMPtgB--12" target="dEHhBSzEo7WnEX1Q0_IP-3">
          <mxGeometry x="0.0037" width="160" relative="1" as="geometry">
            <mxPoint x="308" y="395.5" as="sourcePoint" />
            <mxPoint x="492" y="321" as="targetPoint" />
            <mxPoint as="offset" />
          </mxGeometry>
        </mxCell>
        <mxCell id="dEHhBSzEo7WnEX1Q0_IP-3" value="By google account&amp;nbsp;" style="ellipse;whiteSpace=wrap;html=1;" vertex="1" parent="1">
          <mxGeometry x="459" y="326" width="111" height="27" as="geometry" />
        </mxCell>
        <mxCell id="NqhE_Ja5AIdhjeWjl9OC-2" value="&amp;lt;&amp;lt;include&amp;gt;&amp;gt;" style="endArrow=open;endSize=12;dashed=1;html=1;rounded=0;exitX=1;exitY=0.5;exitDx=0;exitDy=0;entryX=0;entryY=0.5;entryDx=0;entryDy=0;" edge="1" parent="1" source="ci-4XjQ7CBi_CwMPtgB--12" target="NqhE_Ja5AIdhjeWjl9OC-3">
          <mxGeometry x="0.0037" width="160" relative="1" as="geometry">
            <mxPoint x="314" y="364" as="sourcePoint" />
            <mxPoint x="450" y="333" as="targetPoint" />
            <mxPoint as="offset" />
          </mxGeometry>
        </mxCell>
        <mxCell id="NqhE_Ja5AIdhjeWjl9OC-3" value="By Facebook account&amp;nbsp;" style="ellipse;whiteSpace=wrap;html=1;" vertex="1" parent="1">
          <mxGeometry x="528" y="357" width="127" height="29" as="geometry" />
        </mxCell>
        <mxCell id="NqhE_Ja5AIdhjeWjl9OC-4" value="By registered personal information" style="ellipse;whiteSpace=wrap;html=1;" vertex="1" parent="1">
          <mxGeometry x="411" y="404" width="157" height="25" as="geometry" />
        </mxCell>
        <mxCell id="NqhE_Ja5AIdhjeWjl9OC-5" value="&amp;lt;&amp;lt;include&amp;gt;&amp;gt;" style="endArrow=open;endSize=12;dashed=1;html=1;rounded=0;exitX=1;exitY=0.5;exitDx=0;exitDy=0;entryX=0.061;entryY=0.335;entryDx=0;entryDy=0;entryPerimeter=0;" edge="1" parent="1" source="ci-4XjQ7CBi_CwMPtgB--12" target="NqhE_Ja5AIdhjeWjl9OC-4">
          <mxGeometry x="0.0037" width="160" relative="1" as="geometry">
            <mxPoint x="314" y="364" as="sourcePoint" />
            <mxPoint x="443" y="384" as="targetPoint" />
            <mxPoint as="offset" />
          </mxGeometry>
        </mxCell>
        <mxCell id="NqhE_Ja5AIdhjeWjl9OC-8" value="&amp;lt;&amp;lt;include&amp;gt;&amp;gt;" style="endArrow=open;endSize=12;dashed=1;html=1;rounded=0;entryX=0;entryY=0.5;entryDx=0;entryDy=0;exitX=1;exitY=0.5;exitDx=0;exitDy=0;" edge="1" parent="1" source="ci-4XjQ7CBi_CwMPtgB--19" target="ci-4XjQ7CBi_CwMPtgB--15">
          <mxGeometry x="0.0041" width="160" relative="1" as="geometry">
            <mxPoint x="361" y="636" as="sourcePoint" />
            <mxPoint x="503" y="605" as="targetPoint" />
            <mxPoint as="offset" />
          </mxGeometry>
        </mxCell>
        <mxCell id="NqhE_Ja5AIdhjeWjl9OC-11" value="" style="endArrow=open;html=1;rounded=0;endFill=0;dashed=1;dashPattern=1 2;exitX=1;exitY=0.5;exitDx=0;exitDy=0;entryX=0;entryY=0.5;entryDx=0;entryDy=0;" edge="1" parent="1" source="ci-4XjQ7CBi_CwMPtgB--29" target="NqhE_Ja5AIdhjeWjl9OC-13">
          <mxGeometry width="50" height="50" relative="1" as="geometry">
            <mxPoint x="495" y="790" as="sourcePoint" />
            <mxPoint x="592" y="872" as="targetPoint" />
          </mxGeometry>
        </mxCell>
        <mxCell id="NqhE_Ja5AIdhjeWjl9OC-12" value="&amp;lt;&amp;lt;include&amp;gt;&amp;gt;" style="edgeLabel;html=1;align=center;verticalAlign=middle;resizable=0;points=[];" connectable="0" vertex="1" parent="NqhE_Ja5AIdhjeWjl9OC-11">
          <mxGeometry x="-0.3025" y="1" relative="1" as="geometry">
            <mxPoint y="-3" as="offset" />
          </mxGeometry>
        </mxCell>
        <mxCell id="NqhE_Ja5AIdhjeWjl9OC-13" value="CRUD" style="ellipse;whiteSpace=wrap;html=1;" vertex="1" parent="1">
          <mxGeometry x="560" y="799" width="72" height="26" as="geometry" />
        </mxCell>
        <mxCell id="NqhE_Ja5AIdhjeWjl9OC-15" value="" style="endArrow=open;html=1;rounded=0;endFill=0;dashed=1;dashPattern=1 2;exitX=1;exitY=0;exitDx=0;exitDy=0;entryX=0;entryY=0.5;entryDx=0;entryDy=0;" edge="1" parent="1" source="NqhE_Ja5AIdhjeWjl9OC-13" target="EdQspr-EoTGLL3d4dlmB-1">
          <mxGeometry width="50" height="50" relative="1" as="geometry">
            <mxPoint x="495" y="790" as="sourcePoint" />
            <mxPoint x="581" y="813" as="targetPoint" />
          </mxGeometry>
        </mxCell>
        <mxCell id="NqhE_Ja5AIdhjeWjl9OC-16" value="&amp;lt;&amp;lt;include&amp;gt;&amp;gt;" style="edgeLabel;html=1;align=center;verticalAlign=middle;resizable=0;points=[];" connectable="0" vertex="1" parent="NqhE_Ja5AIdhjeWjl9OC-15">
          <mxGeometry x="-0.3025" y="1" relative="1" as="geometry">
            <mxPoint y="-3" as="offset" />
          </mxGeometry>
        </mxCell>
        <mxCell id="NqhE_Ja5AIdhjeWjl9OC-17" value="add information&amp;nbsp;" style="ellipse;whiteSpace=wrap;html=1;" vertex="1" parent="1">
          <mxGeometry x="702" y="807" width="110" height="40" as="geometry" />
        </mxCell>
        <mxCell id="NqhE_Ja5AIdhjeWjl9OC-18" value="" style="endArrow=open;html=1;rounded=0;endFill=0;dashed=1;dashPattern=1 2;exitX=1;exitY=0;exitDx=0;exitDy=0;entryX=0;entryY=0.5;entryDx=0;entryDy=0;" edge="1" parent="1" target="NqhE_Ja5AIdhjeWjl9OC-17">
          <mxGeometry width="50" height="50" relative="1" as="geometry">
            <mxPoint x="631" y="813" as="sourcePoint" />
            <mxPoint x="712" y="779" as="targetPoint" />
          </mxGeometry>
        </mxCell>
        <mxCell id="NqhE_Ja5AIdhjeWjl9OC-19" value="&amp;lt;&amp;lt;include&amp;gt;&amp;gt;" style="edgeLabel;html=1;align=center;verticalAlign=middle;resizable=0;points=[];" connectable="0" vertex="1" parent="NqhE_Ja5AIdhjeWjl9OC-18">
          <mxGeometry x="-0.3025" y="1" relative="1" as="geometry">
            <mxPoint x="9" y="-1" as="offset" />
          </mxGeometry>
        </mxCell>
        <mxCell id="NqhE_Ja5AIdhjeWjl9OC-20" value="" style="endArrow=open;html=1;rounded=0;endFill=0;dashed=1;dashPattern=1 2;exitX=0.983;exitY=0.946;exitDx=0;exitDy=0;entryX=0.093;entryY=0.21;entryDx=0;entryDy=0;entryPerimeter=0;exitPerimeter=0;" edge="1" parent="1" source="NqhE_Ja5AIdhjeWjl9OC-13" target="ci-4XjQ7CBi_CwMPtgB--35">
          <mxGeometry width="50" height="50" relative="1" as="geometry">
            <mxPoint x="641" y="823" as="sourcePoint" />
            <mxPoint x="712" y="837" as="targetPoint" />
          </mxGeometry>
        </mxCell>
        <mxCell id="NqhE_Ja5AIdhjeWjl9OC-21" value="&amp;lt;&amp;lt;include&amp;gt;&amp;gt;" style="edgeLabel;html=1;align=center;verticalAlign=middle;resizable=0;points=[];" connectable="0" vertex="1" parent="NqhE_Ja5AIdhjeWjl9OC-20">
          <mxGeometry x="-0.3025" y="1" relative="1" as="geometry">
            <mxPoint y="-3" as="offset" />
          </mxGeometry>
        </mxCell>
        <mxCell id="NqhE_Ja5AIdhjeWjl9OC-22" value="Order now" style="ellipse;whiteSpace=wrap;html=1;" vertex="1" parent="1">
          <mxGeometry x="490" y="599" width="121" height="30" as="geometry" />
        </mxCell>
        <mxCell id="NqhE_Ja5AIdhjeWjl9OC-23" value="&amp;lt;&amp;lt;include&amp;gt;&amp;gt;" style="endArrow=open;endSize=12;dashed=1;html=1;rounded=0;exitX=1;exitY=0.5;exitDx=0;exitDy=0;" edge="1" parent="1">
          <mxGeometry x="0.0035" width="160" relative="1" as="geometry">
            <mxPoint x="606" y="607" as="sourcePoint" />
            <mxPoint x="697" y="580" as="targetPoint" />
            <mxPoint as="offset" />
          </mxGeometry>
        </mxCell>
        <mxCell id="NqhE_Ja5AIdhjeWjl9OC-24" value="&amp;lt;&amp;lt;include&amp;gt;&amp;gt;" style="endArrow=open;endSize=12;dashed=1;html=1;rounded=0;exitX=1;exitY=0.5;exitDx=0;exitDy=0;" edge="1" parent="1">
          <mxGeometry x="0.0035" width="160" relative="1" as="geometry">
            <mxPoint x="611" y="613" as="sourcePoint" />
            <mxPoint x="707" y="617" as="targetPoint" />
            <mxPoint as="offset" />
          </mxGeometry>
        </mxCell>
        <mxCell id="NqhE_Ja5AIdhjeWjl9OC-25" value="Add address" style="ellipse;whiteSpace=wrap;html=1;" vertex="1" parent="1">
          <mxGeometry x="696.5" y="565" width="121" height="30" as="geometry" />
        </mxCell>
        <mxCell id="NqhE_Ja5AIdhjeWjl9OC-26" value="Add payment methods" style="ellipse;whiteSpace=wrap;html=1;" vertex="1" parent="1">
          <mxGeometry x="706" y="603" width="121" height="30" as="geometry" />
        </mxCell>
        <mxCell id="NqhE_Ja5AIdhjeWjl9OC-27" value="Manage order" style="ellipse;whiteSpace=wrap;html=1;" vertex="1" parent="1">
          <mxGeometry x="234.5" y="649" width="112" height="30" as="geometry" />
        </mxCell>
        <mxCell id="NqhE_Ja5AIdhjeWjl9OC-29" value="&amp;lt;&amp;lt;include&amp;gt;&amp;gt;" style="endArrow=open;endSize=12;dashed=1;html=1;rounded=0;exitX=1;exitY=0.5;exitDx=0;exitDy=0;" edge="1" parent="1" source="NqhE_Ja5AIdhjeWjl9OC-27">
          <mxGeometry x="0.0035" width="160" relative="1" as="geometry">
            <mxPoint x="361" y="636" as="sourcePoint" />
            <mxPoint x="494" y="651" as="targetPoint" />
            <mxPoint as="offset" />
          </mxGeometry>
        </mxCell>
        <mxCell id="NqhE_Ja5AIdhjeWjl9OC-30" value="Change order information" style="ellipse;whiteSpace=wrap;html=1;" vertex="1" parent="1">
          <mxGeometry x="493" y="635" width="121" height="30" as="geometry" />
        </mxCell>
        <mxCell id="NqhE_Ja5AIdhjeWjl9OC-31" value="&amp;lt;&amp;lt;include&amp;gt;&amp;gt;" style="endArrow=open;endSize=12;dashed=1;html=1;rounded=0;exitX=1;exitY=0.5;exitDx=0;exitDy=0;" edge="1" parent="1" source="NqhE_Ja5AIdhjeWjl9OC-27">
          <mxGeometry x="0.0035" width="160" relative="1" as="geometry">
            <mxPoint x="357" y="674" as="sourcePoint" />
            <mxPoint x="501" y="687" as="targetPoint" />
            <mxPoint as="offset" />
          </mxGeometry>
        </mxCell>
        <mxCell id="NqhE_Ja5AIdhjeWjl9OC-32" value="Cancel order" style="ellipse;whiteSpace=wrap;html=1;" vertex="1" parent="1">
          <mxGeometry x="498" y="672" width="121" height="30" as="geometry" />
        </mxCell>
        <mxCell id="NqhE_Ja5AIdhjeWjl9OC-33" value="tracking ordered product" style="ellipse;whiteSpace=wrap;html=1;" vertex="1" parent="1">
          <mxGeometry x="525" y="868" width="120" height="40" as="geometry" />
        </mxCell>
        <mxCell id="NqhE_Ja5AIdhjeWjl9OC-34" value="processing ordered product" style="ellipse;whiteSpace=wrap;html=1;" vertex="1" parent="1">
          <mxGeometry x="551" y="930" width="120" height="40" as="geometry" />
        </mxCell>
        <mxCell id="NqhE_Ja5AIdhjeWjl9OC-35" value="" style="endArrow=open;html=1;rounded=0;endFill=0;dashed=1;dashPattern=1 2;exitX=1;exitY=0;exitDx=0;exitDy=0;" edge="1" parent="1" source="ci-4XjQ7CBi_CwMPtgB--27">
          <mxGeometry width="50" height="50" relative="1" as="geometry">
            <mxPoint x="641" y="834" as="sourcePoint" />
            <mxPoint x="525" y="888" as="targetPoint" />
            <Array as="points" />
          </mxGeometry>
        </mxCell>
        <mxCell id="NqhE_Ja5AIdhjeWjl9OC-36" value="&amp;lt;&amp;lt;include&amp;gt;&amp;gt;" style="edgeLabel;html=1;align=center;verticalAlign=middle;resizable=0;points=[];" connectable="0" vertex="1" parent="NqhE_Ja5AIdhjeWjl9OC-35">
          <mxGeometry x="-0.3025" y="1" relative="1" as="geometry">
            <mxPoint x="9" y="-1" as="offset" />
          </mxGeometry>
        </mxCell>
        <mxCell id="NqhE_Ja5AIdhjeWjl9OC-37" value="" style="endArrow=open;html=1;rounded=0;endFill=0;dashed=1;dashPattern=1 2;entryX=0.053;entryY=0.225;entryDx=0;entryDy=0;entryPerimeter=0;" edge="1" parent="1" target="NqhE_Ja5AIdhjeWjl9OC-34">
          <mxGeometry width="50" height="50" relative="1" as="geometry">
            <mxPoint x="468" y="924" as="sourcePoint" />
            <mxPoint x="535" y="898" as="targetPoint" />
            <Array as="points" />
          </mxGeometry>
        </mxCell>
        <mxCell id="NqhE_Ja5AIdhjeWjl9OC-38" value="&amp;lt;&amp;lt;include&amp;gt;&amp;gt;" style="edgeLabel;html=1;align=center;verticalAlign=middle;resizable=0;points=[];" connectable="0" vertex="1" parent="NqhE_Ja5AIdhjeWjl9OC-37">
          <mxGeometry x="-0.3025" y="1" relative="1" as="geometry">
            <mxPoint x="14" y="-2" as="offset" />
          </mxGeometry>
        </mxCell>
        <mxCell id="NqhE_Ja5AIdhjeWjl9OC-41" value="&lt;b&gt;&lt;font style=&quot;font-size: 14px;&quot;&gt;Book store website&lt;/font&gt;&lt;/b&gt;" style="text;html=1;align=center;verticalAlign=middle;whiteSpace=wrap;rounded=0;" vertex="1" parent="1">
          <mxGeometry x="465" y="276" width="140" height="25" as="geometry" />
        </mxCell>
        <mxCell id="NqhE_Ja5AIdhjeWjl9OC-42" value="monitoring check-out flow" style="ellipse;whiteSpace=wrap;html=1;" vertex="1" parent="1">
          <mxGeometry x="570" y="982" width="141" height="31" as="geometry" />
        </mxCell>
        <mxCell id="NqhE_Ja5AIdhjeWjl9OC-43" value="" style="endArrow=open;html=1;rounded=0;endFill=0;dashed=1;dashPattern=1 2;entryX=0;entryY=0.5;entryDx=0;entryDy=0;exitX=1;exitY=0.5;exitDx=0;exitDy=0;" edge="1" parent="1" source="ci-4XjQ7CBi_CwMPtgB--26" target="NqhE_Ja5AIdhjeWjl9OC-42">
          <mxGeometry width="50" height="50" relative="1" as="geometry">
            <mxPoint x="478" y="934" as="sourcePoint" />
            <mxPoint x="567" y="949" as="targetPoint" />
            <Array as="points" />
          </mxGeometry>
        </mxCell>
        <mxCell id="NqhE_Ja5AIdhjeWjl9OC-44" value="&amp;lt;&amp;lt;include&amp;gt;&amp;gt;" style="edgeLabel;html=1;align=center;verticalAlign=middle;resizable=0;points=[];" connectable="0" vertex="1" parent="NqhE_Ja5AIdhjeWjl9OC-43">
          <mxGeometry x="-0.3025" y="1" relative="1" as="geometry">
            <mxPoint x="14" y="-2" as="offset" />
          </mxGeometry>
        </mxCell>
        <mxCell id="fUY4YqF9ZxjE8aFjdOvj-1" value="search" style="ellipse;whiteSpace=wrap;html=1;" vertex="1" parent="1">
          <mxGeometry x="639" y="388" width="110" height="26" as="geometry" />
        </mxCell>
        <mxCell id="fUY4YqF9ZxjE8aFjdOvj-3" value="view product detail" style="ellipse;whiteSpace=wrap;html=1;" vertex="1" parent="1">
          <mxGeometry x="787" y="331" width="110" height="26" as="geometry" />
        </mxCell>
        <mxCell id="fUY4YqF9ZxjE8aFjdOvj-5" value="&amp;lt;&amp;lt;include&amp;gt;&amp;gt;" style="endArrow=open;endSize=12;dashed=1;html=1;rounded=0;exitX=1;exitY=0;exitDx=0;exitDy=0;entryX=0;entryY=0.5;entryDx=0;entryDy=0;" edge="1" parent="1" source="7kzHWnWIBPAfGr6T1e9X-8">
          <mxGeometry x="-0.0031" width="160" relative="1" as="geometry">
            <mxPoint x="447" y="454" as="sourcePoint" />
            <mxPoint x="643" y="402" as="targetPoint" />
            <mxPoint as="offset" />
          </mxGeometry>
        </mxCell>
        <mxCell id="fUY4YqF9ZxjE8aFjdOvj-7" value="&amp;lt;&amp;lt;extend&amp;gt;&amp;gt;" style="endArrow=open;endSize=12;dashed=1;html=1;rounded=0;exitX=1;exitY=0;exitDx=0;exitDy=0;entryX=0;entryY=0.5;entryDx=0;entryDy=0;" edge="1" parent="1" target="fUY4YqF9ZxjE8aFjdOvj-3">
          <mxGeometry x="-0.0031" width="160" relative="1" as="geometry">
            <mxPoint x="696.5" y="388" as="sourcePoint" />
            <mxPoint x="765.5" y="353" as="targetPoint" />
            <mxPoint as="offset" />
          </mxGeometry>
        </mxCell>
        <mxCell id="fUY4YqF9ZxjE8aFjdOvj-12" value="fiter" style="ellipse;whiteSpace=wrap;html=1;" vertex="1" parent="1">
          <mxGeometry x="687" y="446" width="95" height="26" as="geometry" />
        </mxCell>
        <mxCell id="fUY4YqF9ZxjE8aFjdOvj-13" value="&amp;lt;&amp;lt;extend&amp;gt;&amp;gt;" style="endArrow=open;endSize=12;dashed=1;html=1;rounded=0;exitX=1;exitY=0;exitDx=0;exitDy=0;entryX=0;entryY=0.5;entryDx=0;entryDy=0;" edge="1" parent="1" target="fUY4YqF9ZxjE8aFjdOvj-12">
          <mxGeometry x="-0.0031" width="160" relative="1" as="geometry">
            <mxPoint x="584" y="447" as="sourcePoint" />
            <mxPoint x="653" y="412" as="targetPoint" />
            <mxPoint as="offset" />
          </mxGeometry>
        </mxCell>
      </root>
    </mxGraphModel>
  </diagram>
</mxfile>
